<?xml version="1.0" standalone="no"?>
<!DOCTYPE svg PUBLIC "-//W3C//DTD SVG 20010904//EN"
 "http://www.w3.org/TR/2001/REC-SVG-20010904/DTD/svg10.dtd">
<svg version="1.0" xmlns="http://www.w3.org/2000/svg"
 width="1080.000000pt" height="1080.000000pt" viewBox="0 0 1080.000000 1080.000000"
 preserveAspectRatio="xMidYMid meet">

<g transform="translate(0.000000,1080.000000) scale(0.100000,-0.100000)"
fill="#2b5292" stroke="none">
<path d="M8270 10638 c-85 -18 -2788 -678 -2841 -694 -182 -53 -456 -258 -582
-435 -50 -71 -2080 -3973 -2109 -4054 -39 -112 -14 -229 61 -278 83 -55 154
-59 422 -22 214 29 261 30 320 10 112 -40 152 -152 101 -285 -11 -30 -429
-917 -928 -1970 -498 -1053 -915 -1938 -925 -1965 l-18 -51 44 -246 c31 -176
51 -264 70 -305 93 -204 312 -244 492 -91 34 29 475 523 980 1098 504 575
1532 1745 2283 2600 751 856 1391 1586 1423 1623 129 152 178 338 131 497 -42
141 -125 219 -355 335 -93 47 -169 90 -169 95 0 25 -80 62 -149 68 l-69 7 192
245 c708 901 2217 2825 2253 2871 92 121 128 235 121 383 -3 78 -9 101 -38
161 -55 114 -114 164 -310 258 -91 44 -180 93 -197 108 -53 46 -113 57 -203
37z m254 -385 c67 -31 136 -68 155 -81 69 -51 79 -154 25 -257 -16 -30 -614
-799 -1329 -1707 -715 -908 -1305 -1658 -1311 -1666 -12 -16 -205 -42 -334
-44 -88 -2 -115 6 -157 45 -43 39 -27 132 40 222 55 76 2782 3544 2786 3545 2
0 59 -26 125 -57z m-1663 -4180 c71 -47 89 -136 45 -228 -13 -29 -85 -120
-172 -220 -281 -319 -2676 -3047 -3582 -4080 -497 -566 -918 -1043 -936 -1058
-51 -47 -63 -50 -77 -25 -22 41 -79 438 -79 547 l0 66 866 985 c476 542 1494
1699 2261 2572 l1396 1587 120 -60 c66 -33 137 -72 158 -86z"/>
</g>
</svg>
